<svg xmlns="http://www.w3.org/2000/svg" xmlns:xlink="http://www.w3.org/1999/xlink" width="1247" zoomAndPan="magnify" viewBox="0 0 935.25 713.249978" height="951" preserveAspectRatio="xMidYMid meet" version="1.0"><defs><g/><clipPath id="9b47003f1e"><path d="M 0.117188 300.300781 L 316.417969 300.300781 L 316.417969 706.796875 L 0.117188 706.796875 Z M 0.117188 300.300781 " clip-rule="nonzero"/></clipPath><clipPath id="21d58291ed"><path d="M 21.09375 300.300781 L 295.441406 300.300781 C 301.003906 300.300781 306.339844 302.511719 310.273438 306.445312 C 314.207031 310.378906 316.417969 315.714844 316.417969 321.277344 L 316.417969 685.441406 C 316.417969 691.003906 314.207031 696.339844 310.273438 700.273438 C 306.339844 704.207031 301.003906 706.417969 295.441406 706.417969 L 21.09375 706.417969 C 15.53125 706.417969 10.195312 704.207031 6.261719 700.273438 C 2.328125 696.339844 0.117188 691.003906 0.117188 685.441406 L 0.117188 321.277344 C 0.117188 315.714844 2.328125 310.378906 6.261719 306.445312 C 10.195312 302.511719 15.53125 300.300781 21.09375 300.300781 Z M 21.09375 300.300781 " clip-rule="nonzero"/></clipPath><clipPath id="1d7722d478"><path d="M 0.117188 0.300781 L 316.417969 0.300781 L 316.417969 406.535156 L 0.117188 406.535156 Z M 0.117188 0.300781 " clip-rule="nonzero"/></clipPath><clipPath id="4623d07601"><path d="M 21.09375 0.300781 L 295.441406 0.300781 C 301.003906 0.300781 306.339844 2.511719 310.273438 6.445312 C 314.207031 10.378906 316.417969 15.714844 316.417969 21.277344 L 316.417969 385.441406 C 316.417969 391.003906 314.207031 396.339844 310.273438 400.273438 C 306.339844 404.207031 301.003906 406.417969 295.441406 406.417969 L 21.09375 406.417969 C 15.53125 406.417969 10.195312 404.207031 6.261719 400.273438 C 2.328125 396.339844 0.117188 391.003906 0.117188 385.441406 L 0.117188 21.277344 C 0.117188 15.714844 2.328125 10.378906 6.261719 6.445312 C 10.195312 2.511719 15.53125 0.300781 21.09375 0.300781 Z M 21.09375 0.300781 " clip-rule="nonzero"/></clipPath><clipPath id="d0115a1e4d"><rect x="0" width="317" y="0" height="407"/></clipPath><clipPath id="9014db2d88"><path d="M 323.910156 300.300781 L 625.480469 300.300781 L 625.480469 706.714844 L 323.910156 706.714844 Z M 323.910156 300.300781 " clip-rule="nonzero"/></clipPath><clipPath id="3bb79f1d78"><path d="M 344.886719 300.300781 L 604.503906 300.300781 C 610.066406 300.300781 615.402344 302.511719 619.335938 306.445312 C 623.269531 310.378906 625.480469 315.714844 625.480469 321.277344 L 625.480469 685.4375 C 625.480469 691.003906 623.269531 696.339844 619.335938 700.273438 C 615.402344 704.207031 610.066406 706.417969 604.503906 706.417969 L 344.886719 706.417969 C 339.324219 706.417969 333.988281 704.207031 330.054688 700.273438 C 326.121094 696.339844 323.910156 691.003906 323.910156 685.4375 L 323.910156 321.277344 C 323.910156 315.714844 326.121094 310.378906 330.054688 306.445312 C 333.988281 302.511719 339.324219 300.300781 344.886719 300.300781 Z M 344.886719 300.300781 " clip-rule="nonzero"/></clipPath><clipPath id="8c484f7dd8"><path d="M 0.910156 0.300781 L 302.480469 0.300781 L 302.480469 406.535156 L 0.910156 406.535156 Z M 0.910156 0.300781 " clip-rule="nonzero"/></clipPath><clipPath id="060d47ac78"><path d="M 21.886719 0.300781 L 281.503906 0.300781 C 287.066406 0.300781 292.402344 2.511719 296.335938 6.445312 C 300.269531 10.378906 302.480469 15.714844 302.480469 21.277344 L 302.480469 385.4375 C 302.480469 391.003906 300.269531 396.339844 296.335938 400.273438 C 292.402344 404.207031 287.066406 406.417969 281.503906 406.417969 L 21.886719 406.417969 C 16.324219 406.417969 10.988281 404.207031 7.054688 400.273438 C 3.121094 396.339844 0.910156 391.003906 0.910156 385.4375 L 0.910156 21.277344 C 0.910156 15.714844 3.121094 10.378906 7.054688 6.445312 C 10.988281 2.511719 16.324219 0.300781 21.886719 0.300781 Z M 21.886719 0.300781 " clip-rule="nonzero"/></clipPath><clipPath id="ec90f44db2"><rect x="0" width="303" y="0" height="407"/></clipPath><clipPath id="b830ef7de3"><rect x="0" width="205" y="0" height="330"/></clipPath><clipPath id="8b22694830"><rect x="0" width="252" y="0" height="306"/></clipPath><clipPath id="7b62b0f2a2"><path d="M 632.785156 2.953125 L 934.355469 2.953125 L 934.355469 707 L 632.785156 707 Z M 632.785156 2.953125 " clip-rule="nonzero"/></clipPath><clipPath id="2774d5a76d"><path d="M 653.761719 2.953125 L 913.378906 2.953125 C 918.941406 2.953125 924.277344 5.164062 928.210938 9.097656 C 932.144531 13.03125 934.355469 18.367188 934.355469 23.929688 L 934.355469 685.441406 C 934.355469 691.003906 932.144531 696.339844 928.210938 700.273438 C 924.277344 704.207031 918.941406 706.417969 913.378906 706.417969 L 653.761719 706.417969 C 648.199219 706.417969 642.863281 704.207031 638.929688 700.273438 C 634.996094 696.339844 632.785156 691.003906 632.785156 685.441406 L 632.785156 23.929688 C 632.785156 18.367188 634.996094 13.03125 638.929688 9.097656 C 642.863281 5.164062 648.199219 2.953125 653.761719 2.953125 Z M 653.761719 2.953125 " clip-rule="nonzero"/></clipPath><clipPath id="396449f6e6"><path d="M 0.785156 0.953125 L 302.355469 0.953125 L 302.355469 704.535156 L 0.785156 704.535156 Z M 0.785156 0.953125 " clip-rule="nonzero"/></clipPath><clipPath id="dcd8d29f43"><path d="M 21.761719 0.953125 L 281.378906 0.953125 C 286.941406 0.953125 292.277344 3.164062 296.210938 7.097656 C 300.144531 11.03125 302.355469 16.367188 302.355469 21.929688 L 302.355469 683.441406 C 302.355469 689.003906 300.144531 694.339844 296.210938 698.273438 C 292.277344 702.207031 286.941406 704.417969 281.378906 704.417969 L 21.761719 704.417969 C 16.199219 704.417969 10.863281 702.207031 6.929688 698.273438 C 2.996094 694.339844 0.785156 689.003906 0.785156 683.441406 L 0.785156 21.929688 C 0.785156 16.367188 2.996094 11.03125 6.929688 7.097656 C 10.863281 3.164062 16.199219 0.953125 21.761719 0.953125 Z M 21.761719 0.953125 " clip-rule="nonzero"/></clipPath><clipPath id="643f185c37"><rect x="0" width="303" y="0" height="705"/></clipPath><clipPath id="f5b167c665"><rect x="0" width="145" y="0" height="635"/></clipPath></defs><g clip-path="url(#9b47003f1e)"><g clip-path="url(#21d58291ed)"><g transform="matrix(1, 0, 0, 1, 0.000000000000000014, 300)"><g clip-path="url(#d0115a1e4d)"><g clip-path="url(#1d7722d478)"><g clip-path="url(#4623d07601)"><path fill="#e4067e" d="M 0.117188 0.300781 L 316.417969 0.300781 L 316.417969 406.796875 L 0.117188 406.796875 Z M 0.117188 0.300781 " fill-opacity="1" fill-rule="nonzero"/></g></g></g></g></g></g><g clip-path="url(#9014db2d88)"><g clip-path="url(#3bb79f1d78)"><g transform="matrix(1, 0, 0, 1, 323, 300)"><g clip-path="url(#ec90f44db2)"><g clip-path="url(#8c484f7dd8)"><g clip-path="url(#060d47ac78)"><path fill="#4dbed2" d="M 0.910156 0.300781 L 302.480469 0.300781 L 302.480469 406.714844 L 0.910156 406.714844 Z M 0.910156 0.300781 " fill-opacity="1" fill-rule="nonzero"/></g></g></g></g></g></g><g transform="matrix(1, 0, 0, 1, 56, 338)"><g clip-path="url(#b830ef7de3)"><g fill="#ffffff" fill-opacity="1"><g transform="translate(160.111081, 329.178552)"><g><path d="M 0 -33.1875 L 0 -13.859375 L -106.640625 -13.859375 L -106.640625 -41.421875 L -28.234375 -68.421875 L -28.234375 -69.953125 L -106.640625 -96.78125 L -106.640625 -123.703125 L 0 -123.703125 L 0 -103.71875 L -70.453125 -103.71875 L -70.75 -101.890625 L 0 -77.234375 L 0 -59.65625 L -70.75 -35.015625 L -70.453125 -33.1875 Z M 0 -33.1875 "/></g></g></g><g fill="#ffffff" fill-opacity="1"><g transform="translate(160.111081, 191.555246)"><g><path d="M 0 -102.328125 L 0 -80.15625 L -24.578125 -72.140625 L -24.578125 -31.296875 L 0 -23.265625 L 0 -1.609375 L -106.640625 -38.4375 L -106.640625 -65.5 Z M -84.390625 -50.6875 L -42.296875 -36.984375 L -42.296875 -66.296875 L -84.390625 -52.515625 Z M -84.390625 -50.6875 "/></g></g></g><g fill="#ffffff" fill-opacity="1"><g transform="translate(160.111081, 87.626677)"><g><path d="M 1.53125 -37.34375 C 1.53125 -28.300781 -0.179688 -20.785156 -3.609375 -14.796875 C -7.035156 -8.816406 -11.644531 -4.46875 -17.4375 -1.75 L -31.875 -13.640625 L -31.875 -15.46875 C -27.207031 -17.40625 -23.523438 -20.160156 -20.828125 -23.734375 C -18.128906 -27.316406 -16.78125 -31.460938 -16.78125 -36.171875 C -16.78125 -41.472656 -18.320312 -45.410156 -21.40625 -47.984375 C -24.488281 -50.566406 -29.507812 -51.859375 -36.46875 -51.859375 L -106.640625 -51.859375 L -106.640625 -72.859375 L -36.109375 -72.859375 C -23.222656 -72.859375 -13.726562 -69.925781 -7.625 -64.0625 C -1.519531 -58.207031 1.53125 -49.300781 1.53125 -37.34375 Z M 1.53125 -37.34375 "/></g></g></g></g></g><g transform="matrix(1, 0, 0, 1, 348, 358)"><g clip-path="url(#8b22694830)"><g fill="#000000" fill-opacity="1"><g transform="translate(197.15308, 305.410436)"><g><path d="M 0 -42.859375 L 0 -17 L -130.8125 -17 L -130.8125 -42.859375 Z M 0 -42.859375 "/></g></g><g transform="translate(197.15308, 245.460874)"><g><path d="M -130.8125 -42.859375 L -21.65625 -42.859375 L -21.65625 -101.640625 L 0 -101.640625 L 0 -17 L -130.8125 -17 Z M -130.8125 -42.859375 "/></g></g></g><g fill="#000000" fill-opacity="1"><g transform="translate(197.15308, 143.009761)"><g><path d="M 1.875 -71.3125 C 1.875 -59.320312 -0.566406 -48.75 -5.453125 -39.59375 C -10.347656 -30.4375 -17.820312 -23.265625 -27.875 -18.078125 C -37.925781 -12.890625 -50.4375 -10.296875 -65.40625 -10.296875 C -80.375 -10.296875 -92.882812 -12.890625 -102.9375 -18.078125 C -112.988281 -23.265625 -120.457031 -30.4375 -125.34375 -39.59375 C -130.238281 -48.75 -132.6875 -59.320312 -132.6875 -71.3125 C -132.6875 -83.300781 -130.253906 -93.859375 -125.390625 -102.984375 C -120.535156 -112.109375 -113.066406 -119.25 -102.984375 -124.40625 C -92.898438 -129.570312 -80.375 -132.15625 -65.40625 -132.15625 C -50.4375 -132.15625 -37.910156 -129.570312 -27.828125 -124.40625 C -17.742188 -119.25 -10.269531 -112.109375 -5.40625 -102.984375 C -0.550781 -93.859375 1.875 -83.300781 1.875 -71.3125 Z M -20.578125 -71.3125 C -20.578125 -82.40625 -24.140625 -90.875 -31.265625 -96.71875 C -38.398438 -102.570312 -49.78125 -105.5 -65.40625 -105.5 C -81.03125 -105.5 -92.421875 -102.570312 -99.578125 -96.71875 C -106.742188 -90.875 -110.328125 -82.40625 -110.328125 -71.3125 C -110.328125 -60.15625 -106.742188 -51.640625 -99.578125 -45.765625 C -92.421875 -39.890625 -81.03125 -36.953125 -65.40625 -36.953125 C -49.78125 -36.953125 -38.398438 -39.890625 -31.265625 -45.765625 C -24.140625 -51.640625 -20.578125 -60.15625 -20.578125 -71.3125 Z M -20.578125 -71.3125 "/></g></g></g></g></g><g clip-path="url(#7b62b0f2a2)"><g clip-path="url(#2774d5a76d)"><g transform="matrix(1, 0, 0, 1, 632, 2)"><g clip-path="url(#643f185c37)"><g clip-path="url(#396449f6e6)"><g clip-path="url(#dcd8d29f43)"><path fill="#9396b0" d="M 0.785156 0.953125 L 302.355469 0.953125 L 302.355469 704.226562 L 0.785156 704.226562 Z M 0.785156 0.953125 " fill-opacity="1" fill-rule="nonzero"/></g></g></g></g></g></g><g transform="matrix(1, 0, 0, 1, 711, 37)"><g clip-path="url(#f5b167c665)"><g fill="#000000" fill-opacity="1"><g transform="translate(113.233475, 634.702382)"><g><path d="M 0 -71.9375 L 0 -56.359375 L -17.28125 -50.71875 L -17.28125 -22 L 0 -16.359375 L 0 -1.125 L -74.96875 -27.015625 L -74.96875 -46.046875 Z M -59.328125 -35.640625 L -29.734375 -26 L -29.734375 -46.609375 L -59.328125 -36.921875 Z M -59.328125 -35.640625 "/></g></g></g><g fill="#000000" fill-opacity="1"><g transform="translate(113.233475, 561.639373)"><g><path d="M -74.96875 -24.5625 L -12.40625 -24.5625 L -12.40625 -58.25 L 0 -58.25 L 0 -9.75 L -74.96875 -9.75 Z M -74.96875 -24.5625 "/></g></g></g><g fill="#000000" fill-opacity="1"><g transform="translate(113.233475, 500.932985)"><g><path d="M 0 -24.5625 L 0 -9.75 L -74.96875 -9.75 L -74.96875 -24.5625 Z M 0 -24.5625 "/></g></g></g><g fill="#000000" fill-opacity="1"><g transform="translate(113.233475, 466.580553)"><g><path d="M 1.078125 -36.40625 C 1.078125 -30.144531 -0.347656 -24.734375 -3.203125 -20.171875 C -6.054688 -15.609375 -10.363281 -12.085938 -16.125 -9.609375 C -21.882812 -7.128906 -29.003906 -5.890625 -37.484375 -5.890625 C -46.023438 -5.890625 -53.175781 -7.375 -58.9375 -10.34375 C -64.695312 -13.320312 -68.988281 -17.453125 -71.8125 -22.734375 C -74.632812 -28.015625 -76.046875 -34.144531 -76.046875 -41.125 C -76.046875 -48.300781 -74.710938 -54.421875 -72.046875 -59.484375 C -69.378906 -64.546875 -65.410156 -68.097656 -60.140625 -70.140625 L -53.578125 -59.328125 L -53.640625 -58.046875 C -56.984375 -56.503906 -59.425781 -54.335938 -60.96875 -51.546875 C -62.507812 -48.765625 -63.28125 -45.289062 -63.28125 -41.125 C -63.28125 -34.664062 -61.234375 -29.722656 -57.140625 -26.296875 C -53.054688 -22.878906 -46.503906 -21.171875 -37.484375 -21.171875 C -28.421875 -21.171875 -21.835938 -22.769531 -17.734375 -25.96875 C -13.640625 -29.164062 -11.59375 -33.894531 -11.59375 -40.15625 C -11.59375 -45.550781 -12.804688 -49.53125 -15.234375 -52.09375 C -17.660156 -54.65625 -21.28125 -55.9375 -26.09375 -55.9375 L -29.328125 -55.9375 L -29.328125 -38.203125 L -41.375 -38.203125 L -41.375 -70.65625 L 0 -70.65625 L 0 -56.5 L -10.046875 -56.5 L -10.203125 -55.4375 C -6.609375 -53.894531 -3.828125 -51.554688 -1.859375 -48.421875 C 0.0976562 -45.296875 1.078125 -41.289062 1.078125 -36.40625 Z M 1.078125 -36.40625 "/></g></g></g><g fill="#000000" fill-opacity="1"><g transform="translate(113.233475, 388.390316)"><g><path d="M 0 -24.09375 L 0 -9.75 L -74.96875 -9.75 L -74.96875 -26.71875 L -26.671875 -56.8125 L -26.875 -58.140625 L -74.96875 -58.140625 L -74.96875 -72.40625 L 0 -72.40625 L 0 -57.21875 L -51.578125 -25.375 L -51.375 -24.09375 Z M 0 -24.09375 "/></g></g></g><g fill="#000000" fill-opacity="1"><g transform="translate(113.233475, 306.200827)"><g><path d="M 0 -23.328125 L 0 -9.75 L -74.96875 -9.75 L -74.96875 -29.125 L -19.84375 -48.09375 L -19.84375 -49.171875 L -74.96875 -68.046875 L -74.96875 -86.96875 L 0 -86.96875 L 0 -72.921875 L -49.53125 -72.921875 L -49.734375 -71.640625 L 0 -54.296875 L 0 -41.9375 L -49.734375 -24.609375 L -49.53125 -23.328125 Z M 0 -23.328125 "/></g></g></g><g fill="#000000" fill-opacity="1"><g transform="translate(113.233475, 209.450036)"><g><path d="M -32.921875 -24.5625 L -12.40625 -24.5625 L -12.40625 -60.359375 L 0 -60.359375 L 0 -9.75 L -74.96875 -9.75 L -74.96875 -59.53125 L -62.5625 -59.53125 L -62.5625 -24.5625 L -45.015625 -24.5625 L -45.015625 -55.125 L -32.921875 -55.125 Z M -32.921875 -24.5625 "/></g></g></g><g fill="#000000" fill-opacity="1"><g transform="translate(113.233475, 145.000759)"><g><path d="M 0 -24.09375 L 0 -9.75 L -74.96875 -9.75 L -74.96875 -26.71875 L -26.671875 -56.8125 L -26.875 -58.140625 L -74.96875 -58.140625 L -74.96875 -72.40625 L 0 -72.40625 L 0 -57.21875 L -51.578125 -25.375 L -51.375 -24.09375 Z M 0 -24.09375 "/></g></g></g><g fill="#000000" fill-opacity="1"><g transform="translate(113.233475, 62.811322)"><g><path d="M -74.96875 -60.09375 L -62.5 -60.09375 L -62.5 -38.453125 L 0 -38.453125 L 0 -23.6875 L -62.5 -23.6875 L -62.5 -2.046875 L -74.96875 -2.046875 Z M -74.96875 -60.09375 "/></g></g></g></g></g></svg>