<svg xmlns="http://www.w3.org/2000/svg" xmlns:xlink="http://www.w3.org/1999/xlink" width="1211" zoomAndPan="magnify" viewBox="0 0 908.25 1088.249951" height="1451" preserveAspectRatio="xMidYMid meet" version="1.0"><defs><g/><clipPath id="66c78150c7"><path d="M 66 0.867188 L 662 0.867188 L 662 878.0625 L 66 878.0625 Z M 66 0.867188 " clip-rule="nonzero"/></clipPath><clipPath id="a529992363"><rect x="0" width="596" y="0" height="879"/></clipPath><clipPath id="9d7325323b"><path d="M 68 709 L 815.929688 709 L 815.929688 755 L 68 755 Z M 68 709 " clip-rule="nonzero"/></clipPath><clipPath id="ae326968c9"><path d="M 680 641 L 815.929688 641 L 815.929688 822 L 680 822 Z M 680 641 " clip-rule="nonzero"/></clipPath><clipPath id="3846312e05"><path d="M 0.605469 53 L 182 53 L 182 189 L 0.605469 189 Z M 0.605469 53 " clip-rule="nonzero"/></clipPath><clipPath id="b5fe23d6be"><rect x="0" width="816" y="0" height="879"/></clipPath></defs><g transform="matrix(1, 0, 0, 1, 91, 104)"><g clip-path="url(#b5fe23d6be)"><g clip-path="url(#66c78150c7)"><g transform="matrix(1, 0, 0, 1, 66, -0.000000000000085265)"><g clip-path="url(#a529992363)"><g fill="#aa1352" fill-opacity="1"><g transform="translate(0.470331, 688.446068)"><g><path d="M 143.0625 0 L 59.75 0 L 59.75 -459.703125 L 178.59375 -459.703125 L 294.9375 -121.6875 L 301.546875 -121.6875 L 417.265625 -459.703125 L 533.28125 -459.703125 L 533.28125 0 L 447.125 0 L 447.125 -303.75 L 439.265625 -305 L 332.984375 0 L 257.203125 0 L 150.9375 -305 L 143.0625 -303.75 Z M 143.0625 0 "/></g></g></g></g></g></g><g clip-path="url(#9d7325323b)"><path stroke-linecap="butt" transform="matrix(0.693415, 0, 0, 0.693415, 91.142519, 709.295043)" fill="none" stroke-linejoin="miter" d="M -0.00273184 32.501425 L 1012.112662 32.501425 " stroke="#342b60" stroke-width="65" stroke-opacity="1" stroke-miterlimit="4"/></g><g clip-path="url(#ae326968c9)"><path stroke-linecap="round" transform="matrix(0.693415, 0, 0, 0.693415, 91.142519, 709.295043)" fill="none" stroke-linejoin="round" d="M 882.1119 -65.000555 L 1012.112662 32.501425 L 882.1119 129.997771 " stroke="#342b60" stroke-width="65" stroke-opacity="1" stroke-miterlimit="4"/></g><path stroke-linecap="butt" transform="matrix(0, -0.693415, 0.693415, 0, 68.602803, 756.270642)" fill="none" stroke-linejoin="miter" d="M 0.00160181 32.502626 L 980.930783 32.502626 " stroke="#342b60" stroke-width="65" stroke-opacity="1" stroke-miterlimit="4"/><g clip-path="url(#3846312e05)"><path stroke-linecap="round" transform="matrix(0, -0.693415, 0.693415, 0, 68.602803, 756.270642)" fill="none" stroke-linejoin="round" d="M 850.930021 -64.999354 L 980.930783 32.502626 L 850.930021 129.998973 " stroke="#342b60" stroke-width="65" stroke-opacity="1" stroke-miterlimit="4"/></g></g></g></svg>