<svg xmlns="http://www.w3.org/2000/svg" xmlns:xlink="http://www.w3.org/1999/xlink" width="1340" zoomAndPan="magnify" viewBox="0 0 1005 1370.999942" height="1828" preserveAspectRatio="xMidYMid meet" version="1.0"><defs><g/><clipPath id="70f60ecc87"><rect x="0" width="597" y="0" height="1158"/></clipPath><clipPath id="24fb54f617"><path d="M 224 411 L 468 411 L 468 632 L 224 632 Z M 224 411 " clip-rule="nonzero"/></clipPath><clipPath id="df85a02186"><path d="M 190.109375 476.351562 L 372.914062 361.292969 L 502.351562 566.949219 L 319.546875 682.003906 Z M 190.109375 476.351562 " clip-rule="nonzero"/></clipPath><clipPath id="39c39358a4"><path d="M 190.109375 476.351562 L 372.914062 361.292969 L 502.351562 566.949219 L 319.546875 682.003906 Z M 190.109375 476.351562 " clip-rule="nonzero"/></clipPath><clipPath id="99e95a1053"><path d="M 346.230469 521.648438 C 187.308594 616.359375 180.832031 439.648438 346.230469 521.648438 Z M 346.230469 521.648438 C 357.5 705.972656 507.167969 611.769531 346.230469 521.648438 Z M 346.230469 521.648438 C 192.101562 623.976562 348.625 706.242188 346.230469 521.648438 Z M 346.230469 521.648438 C 184.910156 431.765625 334.582031 337.5625 346.230469 521.648438 Z M 346.230469 521.648438 C 511.628906 603.648438 505.15625 426.9375 346.230469 521.648438 Z M 346.230469 521.648438 C 343.835938 337.058594 500.359375 419.320312 346.230469 521.648438 Z M 353.085938 517.335938 C 350.800781 518.773438 348.515625 520.210938 346.230469 521.648438 C 346.175781 519.027344 346.117188 516.402344 345.824219 513.398438 C 345.878906 516.019531 346.175781 519.027344 346.230469 521.648438 C 343.890625 520.464844 341.308594 518.898438 338.96875 517.710938 C 341.308594 518.898438 343.890625 520.464844 346.230469 521.648438 C 343.945312 523.085938 341.660156 524.523438 339.375 525.964844 C 341.660156 524.523438 343.945312 523.085938 346.230469 521.648438 C 346.285156 524.273438 346.34375 526.894531 346.636719 529.898438 C 346.582031 527.277344 346.285156 524.273438 346.230469 521.648438 C 348.570312 522.835938 351.152344 524.398438 353.492188 525.585938 C 351.152344 524.398438 348.570312 522.835938 346.230469 521.648438 C 348.515625 520.210938 350.800781 518.773438 353.085938 517.335938 Z M 353.085938 517.335938 " clip-rule="nonzero"/></clipPath><clipPath id="77077ffb49"><path d="M 540 783 L 777 783 L 777 1021 L 540 1021 Z M 540 783 " clip-rule="nonzero"/></clipPath><clipPath id="2b022a1483"><path d="M 584.78125 757.160156 L 793.734375 811.886719 L 732.167969 1046.957031 L 523.21875 992.234375 Z M 584.78125 757.160156 " clip-rule="nonzero"/></clipPath><clipPath id="16e69dd955"><path d="M 584.78125 757.160156 L 793.734375 811.886719 L 732.167969 1046.957031 L 523.21875 992.234375 Z M 584.78125 757.160156 " clip-rule="nonzero"/></clipPath><clipPath id="e72c4c8d02"><path d="M 658.476562 902.058594 C 480.699219 850.847656 605.222656 725.300781 658.476562 902.058594 Z M 658.476562 902.058594 C 531.675781 1036.3125 702.753906 1081.121094 658.476562 902.058594 Z M 658.476562 902.058594 C 478.421875 859.554688 525.414062 1030.023438 658.476562 902.058594 Z M 658.476562 902.058594 C 613.761719 722.886719 784.84375 767.691406 658.476562 902.058594 Z M 658.476562 902.058594 C 711.730469 1078.820312 836.25 953.273438 658.476562 902.058594 Z M 658.476562 902.058594 C 791.539062 774.097656 838.53125 944.566406 658.476562 902.058594 Z M 666.3125 904.113281 C 663.699219 903.429688 661.089844 902.746094 658.476562 902.058594 C 660.351562 900.226562 662.226562 898.390625 664.21875 896.121094 C 662.34375 897.957031 660.351562 900.226562 658.476562 902.058594 C 657.738281 899.542969 657.117188 896.585938 656.382812 894.070312 C 657.117188 896.585938 657.738281 899.542969 658.476562 902.058594 C 655.863281 901.375 653.253906 900.691406 650.640625 900.007812 C 653.253906 900.691406 655.863281 901.375 658.476562 902.058594 C 656.601562 903.894531 654.722656 905.730469 652.734375 908 C 654.609375 906.164062 656.601562 903.894531 658.476562 902.058594 C 659.210938 904.578125 659.832031 907.53125 660.570312 910.050781 C 659.832031 907.53125 659.210938 904.578125 658.476562 902.058594 C 661.089844 902.746094 663.699219 903.429688 666.3125 904.113281 Z M 666.3125 904.113281 " clip-rule="nonzero"/></clipPath><clipPath id="25ed3ec885"><path d="M 207 677 L 444 677 L 444 914 L 207 914 Z M 207 677 " clip-rule="nonzero"/></clipPath><clipPath id="e7bf2c36a5"><path d="M 251.675781 650.5625 L 460.625 705.289062 L 399.0625 940.359375 L 190.109375 885.636719 Z M 251.675781 650.5625 " clip-rule="nonzero"/></clipPath><clipPath id="f08699b959"><path d="M 251.675781 650.5625 L 460.625 705.289062 L 399.0625 940.359375 L 190.109375 885.636719 Z M 251.675781 650.5625 " clip-rule="nonzero"/></clipPath><clipPath id="34fdc24564"><path d="M 325.367188 795.460938 C 147.59375 744.25 272.113281 618.703125 325.367188 795.460938 Z M 325.367188 795.460938 C 198.566406 929.714844 369.644531 974.523438 325.367188 795.460938 Z M 325.367188 795.460938 C 145.3125 752.957031 192.304688 923.425781 325.367188 795.460938 Z M 325.367188 795.460938 C 280.652344 616.289062 451.734375 661.09375 325.367188 795.460938 Z M 325.367188 795.460938 C 378.621094 972.222656 503.144531 846.671875 325.367188 795.460938 Z M 325.367188 795.460938 C 458.429688 667.5 505.421875 837.96875 325.367188 795.460938 Z M 333.203125 797.515625 C 330.589844 796.832031 327.980469 796.144531 325.367188 795.460938 C 327.242188 793.628906 329.121094 791.792969 331.109375 789.523438 C 329.234375 791.359375 327.242188 793.628906 325.367188 795.460938 C 324.632812 792.945312 324.007812 789.988281 323.273438 787.472656 C 324.007812 789.988281 324.632812 792.945312 325.367188 795.460938 C 322.753906 794.777344 320.144531 794.09375 317.53125 793.410156 C 320.144531 794.09375 322.753906 794.777344 325.367188 795.460938 C 323.492188 797.296875 321.617188 799.132812 319.625 801.402344 C 321.5 799.566406 323.492188 797.296875 325.367188 795.460938 C 326.101562 797.980469 326.726562 800.933594 327.460938 803.453125 C 326.726562 800.933594 326.101562 797.980469 325.367188 795.460938 C 327.980469 796.144531 330.589844 796.832031 333.203125 797.515625 Z M 333.203125 797.515625 " clip-rule="nonzero"/></clipPath><clipPath id="bfad5a6305"><path d="M 228 928 L 465 928 L 465 1166 L 228 1166 Z M 228 928 " clip-rule="nonzero"/></clipPath><clipPath id="edd404970f"><path d="M 272.539062 902.058594 L 481.488281 956.785156 L 419.925781 1191.855469 L 210.972656 1137.132812 Z M 272.539062 902.058594 " clip-rule="nonzero"/></clipPath><clipPath id="c23af979b8"><path d="M 272.539062 902.058594 L 481.488281 956.785156 L 419.925781 1191.855469 L 210.972656 1137.132812 Z M 272.539062 902.058594 " clip-rule="nonzero"/></clipPath><clipPath id="751490ee36"><path d="M 346.230469 1046.957031 C 168.457031 995.746094 292.976562 870.199219 346.230469 1046.957031 Z M 346.230469 1046.957031 C 219.429688 1181.210938 390.507812 1226.019531 346.230469 1046.957031 Z M 346.230469 1046.957031 C 166.175781 1004.453125 213.167969 1174.921875 346.230469 1046.957031 Z M 346.230469 1046.957031 C 301.515625 867.785156 472.597656 912.589844 346.230469 1046.957031 Z M 346.230469 1046.957031 C 399.484375 1223.71875 524.007812 1098.171875 346.230469 1046.957031 Z M 346.230469 1046.957031 C 479.292969 918.996094 526.285156 1089.464844 346.230469 1046.957031 Z M 354.066406 1049.011719 C 351.453125 1048.328125 348.84375 1047.640625 346.230469 1046.957031 C 348.105469 1045.125 349.984375 1043.289062 351.972656 1041.019531 C 350.097656 1042.855469 348.105469 1045.125 346.230469 1046.957031 C 345.496094 1044.441406 344.875 1041.484375 344.136719 1038.96875 C 344.875 1041.484375 345.496094 1044.441406 346.230469 1046.957031 C 343.617188 1046.273438 341.007812 1045.589844 338.394531 1044.90625 C 341.007812 1045.589844 343.617188 1046.273438 346.230469 1046.957031 C 344.355469 1048.792969 342.480469 1050.628906 340.488281 1052.898438 C 342.363281 1051.0625 344.355469 1048.792969 346.230469 1046.957031 C 346.964844 1049.476562 347.589844 1052.429688 348.324219 1054.949219 C 347.589844 1052.429688 346.964844 1049.476562 346.230469 1046.957031 C 348.84375 1047.640625 351.453125 1048.328125 354.066406 1049.011719 Z M 354.066406 1049.011719 " clip-rule="nonzero"/></clipPath><clipPath id="80add7df74"><path d="M 573 337 L 810 337 L 810 574 L 573 574 Z M 573 337 " clip-rule="nonzero"/></clipPath><clipPath id="f56bc0277a"><path d="M 617.742188 310.976562 L 826.695312 365.703125 L 765.128906 600.773438 L 556.175781 546.046875 Z M 617.742188 310.976562 " clip-rule="nonzero"/></clipPath><clipPath id="2734565f10"><path d="M 617.742188 310.976562 L 826.695312 365.703125 L 765.128906 600.773438 L 556.175781 546.046875 Z M 617.742188 310.976562 " clip-rule="nonzero"/></clipPath><clipPath id="2fe39d62ad"><path d="M 691.433594 455.875 C 513.660156 404.664062 638.179688 279.113281 691.433594 455.875 Z M 691.433594 455.875 C 564.632812 590.128906 735.714844 634.933594 691.433594 455.875 Z M 691.433594 455.875 C 511.378906 413.367188 558.375 583.835938 691.433594 455.875 Z M 691.433594 455.875 C 646.722656 276.699219 817.800781 321.507812 691.433594 455.875 Z M 691.433594 455.875 C 744.691406 632.632812 869.210938 507.085938 691.433594 455.875 Z M 691.433594 455.875 C 824.496094 327.910156 871.492188 498.378906 691.433594 455.875 Z M 699.269531 457.925781 C 696.660156 457.242188 694.046875 456.558594 691.433594 455.875 C 693.3125 454.039062 695.1875 452.207031 697.175781 449.933594 C 695.300781 451.769531 693.3125 454.039062 691.433594 455.875 C 690.699219 453.355469 690.078125 450.402344 689.339844 447.882812 C 690.078125 450.402344 690.699219 453.355469 691.433594 455.875 C 688.824219 455.191406 686.210938 454.507812 683.597656 453.820312 C 686.210938 454.507812 688.824219 455.191406 691.433594 455.875 C 689.558594 457.707031 687.683594 459.542969 685.691406 461.8125 C 687.570312 459.980469 689.558594 457.707031 691.433594 455.875 C 692.171875 458.394531 692.792969 461.347656 693.527344 463.867188 C 692.792969 461.347656 692.171875 458.394531 691.433594 455.875 C 694.046875 456.558594 696.660156 457.242188 699.269531 457.925781 Z M 699.269531 457.925781 " clip-rule="nonzero"/></g></g></g></g></svg>