<svg xmlns="http://www.w3.org/2000/svg" xmlns:xlink="http://www.w3.org/1999/xlink" width="1340" zoomAndPan="magnify" viewBox="0 0 1005 1370.999942" height="1828" preserveAspectRatio="xMidYMid meet" version="1.0"><defs><g/><clipPath id="70f60ecc87"><rect x="0" width="597" y="0" height="1158"/></clipPath><clipPath id="24fb54f617"><path d="M 224 411 L 468 411 L 468 632 L 224 632 Z M 224 411 " clip-rule="nonzero"/></clipPath><clipPath id="df85a02186"><path d="M 190.109375 476.351562 L 372.914062 361.292969 L 502.351562 566.949219 L 319.546875 682.003906 Z M 190.109375 476.351562 " clip-rule="nonzero"/></clipPath><clipPath id="39c39358a4"><path d="M 190.109375 476.351562 L 372.914062 361.292969 L 502.351562 566.949219 L 319.546875 682.003906 Z M 190.109375 476.351562 " clip-rule="nonzero"/></clipPath><clipPath id="99e95a1053"><path d="M 346.230469 521.648438 C 187.308594 616.359375 180.832031 439.648438 346.230469 521.648438 Z M 346.230469 521.648438 C 357.5 705.972656 507.167969 611.769531 346.230469 521.648438 Z M 346.230469 521.648438 C 192.101562 623.976562 348.625 706.242188 346.230469 521.648438 Z M 346.230469 521.648438 C 184.910156 431.765625 334.582031 337.5625 346.230469 521.648438 Z M 346.230469 521.648438 C 511.628906 603.648438 505.15625 426.9375 346.230469 521.648438 Z M 346.230469 521.648438 C 343.835938 337.058594 500.359375 419.320312 346.230469 521.648438 Z M 353.085938 517.335938 C 350.800781 518.773438 348.515625 520.210938 346.230469 521.648438 C 346.175781 519.027344 346.117188 516.402344 345.824219 513.398438 C 345.878906 516.019531 346.175781 519.027344 346.230469 521.648438 C 343.890625 520.464844 341.308594 518.898438 338.96875 517.710938 C 341.308594 518.898438 343.890625 520.464844 346.230469 521.648438 C 343.945312 523.085938 341.660156 524.523438 339.375 525.964844 C 341.660156 524.523438 343.945312 523.085938 346.230469 521.648438 C 346.285156 524.273438 346.34375 526.894531 346.636719 529.898438 C 346.582031 527.277344 346.285156 524.273438 346.230469 521.648438 C 348.570312 522.835938 351.152344 524.398438 353.492188 525.585938 C 351.152344 524.398438 348.570312 522.835938 346.230469 521.648438 C 348.515625 520.210938 350.800781 518.773438 353.085938 517.335938 Z M 353.085938 517.335938 " clip-rule="nonzero"/></clipPath><clipPath id="77077ffb49"><path d="M 540 783 L 777 783 L 777 1021 L 540 1021 Z M 540 783 " clip-rule="nonzero"/></clipPath><clipPath id="2b022a1483"><path d="M 584.78125 757.160156 L 793.734375 811.886719 L 732.167969 1046.957031 L 523.21875 992.234375 Z M 584.78125 757.160156 " clip-rule="nonzero"/></clipPath><clipPath id="16e69dd955"><path d="M 584.78125 757.160156 L 793.734375 811.886719 L 732.167969 1046.957031 L 523.21875 992.234375 Z M 584.78125 757.160156 " clip-rule="nonzero"/></clipPath><clipPath id="e72c4c8d02"><path d="M 658.476562 902.058594 C 480.699219 850.847656 605.222656 725.300781 658.476562 902.058594 Z M 658.476562 902.058594 C 531.675781 1036.3125 702.753906 1081.121094 658.476562 902.058594 Z M 658.476562 902.058594 C 478.421875 859.554688 525.414062 1030.023438 658.476562 902.058594 Z M 658.476562 902.058594 C 613.761719 722.886719 784.84375 767.691406 658.476562 902.058594 Z M 658.476562 902.058594 C 711.730469 1078.820312 836.25 953.273438 658.476562 902.058594 Z M 658.476562 902.058594 C 791.539062 774.097656 838.53125 944.566406 658.476562 902.058594 Z M 666.3125 904.113281 C 663.699219 903.429688 661.089844 902.746094 658.476562 902.058594 C 660.351562 900.226562 662.226562 898.390625 664.21875 896.121094 C 662.34375 897.957031 660.351562 900.226562 658.476562 902.058594 C 657.738281 899.542969 657.117188 896.585938 656.382812 894.070312 C 657.117188 896.585938 657.738281 899.542969 658.476562 902.058594 C 655.863281 901.375 653.253906 900.691406 650.640625 900.007812 C 653.253906 900.691406 655.863281 901.375 658.476562 902.058594 C 656.601562 903.894531 654.722656 905.730469 652.734375 908 C 654.609375 906.164062 656.601562 903.894531 658.476562 902.058594 C 659.210938 904.578125 659.832031 907.53125 660.570312 910.050781 C 659.832031 907.53125 659.210938 904.578125 658.476562 902.058594 C 661.089844 902.746094 663.699219 903.429688 666.3125 904.113281 Z M 666.3125 904.113281 " clip-rule="nonzero"/></clipPath><clipPath id="25ed3ec885"><path d="M 207 677 L 444 677 L 444 914 L 207 914 Z M 207 677 " clip-rule="nonzero"/></clipPath><clipPath id="e7bf2c36a5"><path d="M 251.675781 650.5625 L 460.625 705.289062 L 399.0625 940.359375 L 190.109375 885.636719 Z M 251.675781 650.5625 " clip-rule="nonzero"/></clipPath><clipPath id="f08699b959"><path d="M 251.675781 650.5625 L 460.625 705.289062 L 399.0625 940.359375 L 190.109375 885.636719 Z M 251.675781 650.5625 " clip-rule="nonzero"/></clipPath><clipPath id="34fdc24564"><path d="M 325.367188 795.460938 C 147.59375 744.25 272.113281 618.703125 325.367188 795.460938 Z M 325.367188 795.460938 C 198.566406 929.714844 369.644531 974.523438 325.367188 795.460938 Z M 325.367188 795.460938 C 145.3125 752.957031 192.304688 923.425781 325.367188 795.460938 Z M 325.367188 795.460938 C 280.652344 616.289062 451.734375 661.09375 325.367188 795.460938 Z M 325.367188 795.460938 C 378.621094 972.222656 503.144531 846.671875 325.367188 795.460938 Z M 325.367188 795.460938 C 458.429688 667.5 505.421875 837.96875 325.367188 795.460938 Z M 333.203125 797.515625 C 330.589844 796.832031 327.980469 796.144531 325.367188 795.460938 C 327.242188 793.628906 329.121094 791.792969 331.109375 789.523438 C 329.234375 791.359375 327.242188 793.628906 325.367188 795.460938 C 324.632812 792.945312 324.007812 789.988281 323.273438 787.472656 C 324.007812 789.988281 324.632812 792.945312 325.367188 795.460938 C 322.753906 794.777344 320.144531 794.09375 317.53125 793.410156 C 320.144531 794.09375 322.753906 794.777344 325.367188 795.460938 C 323.492188 797.296875 321.617188 799.132812 319.625 801.402344 C 321.5 799.566406 323.492188 797.296875 325.367188 795.460938 C 326.101562 797.980469 326.726562 800.933594 327.460938 803.453125 C 326.726562 800.933594 326.101562 797.980469 325.367188 795.460938 C 327.980469 796.144531 330.589844 796.832031 333.203125 797.515625 Z M 333.203125 797.515625 " clip-rule="nonzero"/></clipPath><clipPath id="bfad5a6305"><path d="M 228 928 L 465 928 L 465 1166 L 228 1166 Z M 228 928 " clip-rule="nonzero"/></clipPath><clipPath id="edd404970f"><path d="M 272.539062 902.058594 L 481.488281 956.785156 L 419.925781 1191.855469 L 210.972656 1137.132812 Z M 272.539062 902.058594 " clip-rule="nonzero"/></clipPath><clipPath id="c23af979b8"><path d="M 272.539062 902.058594 L 481.488281 956.785156 L 419.925781 1191.855469 L 210.972656 1137.132812 Z M 272.539062 902.058594 " clip-rule="nonzero"/></clipPath><clipPath id="751490ee36"><path d="M 346.230469 1046.957031 C 168.457031 995.746094 292.976562 870.199219 346.230469 1046.957031 Z M 346.230469 1046.957031 C 219.429688 1181.210938 390.507812 1226.019531 346.230469 1046.957031 Z M 346.230469 1046.957031 C 166.175781 1004.453125 213.167969 1174.921875 346.230469 1046.957031 Z M 346.230469 1046.957031 C 301.515625 867.785156 472.597656 912.589844 346.230469 1046.957031 Z M 346.230469 1046.957031 C 399.484375 1223.71875 524.007812 1098.171875 346.230469 1046.957031 Z M 346.230469 1046.957031 C 479.292969 918.996094 526.285156 1089.464844 346.230469 1046.957031 Z M 354.066406 1049.011719 C 351.453125 1048.328125 348.84375 1047.640625 346.230469 1046.957031 C 348.105469 1045.125 349.984375 1043.289062 351.972656 1041.019531 C 350.097656 1042.855469 348.105469 1045.125 346.230469 1046.957031 C 345.496094 1044.441406 344.875 1041.484375 344.136719 1038.96875 C 344.875 1041.484375 345.496094 1044.441406 346.230469 1046.957031 C 343.617188 1046.273438 341.007812 1045.589844 338.394531 1044.90625 C 341.007812 1045.589844 343.617188 1046.273438 346.230469 1046.957031 C 344.355469 1048.792969 342.480469 1050.628906 340.488281 1052.898438 C 342.363281 1051.0625 344.355469 1048.792969 346.230469 1046.957031 C 346.964844 1049.476562 347.589844 1052.429688 348.324219 1054.949219 C 347.589844 1052.429688 346.964844 1049.476562 346.230469 1046.957031 C 348.84375 1047.640625 351.453125 1048.328125 354.066406 1049.011719 Z M 354.066406 1049.011719 " clip-rule="nonzero"/></clipPath><clipPath id="80add7df74"><path d="M 573 337 L 810 337 L 810 574 L 573 574 Z M 573 337 " clip-rule="nonzero"/></clipPath><clipPath id="f56bc0277a"><path d="M 617.742188 310.976562 L 826.695312 365.703125 L 765.128906 600.773438 L 556.175781 546.046875 Z M 617.742188 310.976562 " clip-rule="nonzero"/></clipPath><clipPath id="2734565f10"><path d="M 617.742188 310.976562 L 826.695312 365.703125 L 765.128906 600.773438 L 556.175781 546.046875 Z M 617.742188 310.976562 " clip-rule="nonzero"/></clipPath><clipPath id="2fe39d62ad"><path d="M 691.433594 455.875 C 513.660156 404.664062 638.179688 279.113281 691.433594 455.875 Z M 691.433594 455.875 C 564.632812 590.128906 735.714844 634.933594 691.433594 455.875 Z M 691.433594 455.875 C 511.378906 413.367188 558.375 583.835938 691.433594 455.875 Z M 691.433594 455.875 C 646.722656 276.699219 817.800781 321.507812 691.433594 455.875 Z M 691.433594 455.875 C 744.691406 632.632812 869.210938 507.085938 691.433594 455.875 Z M 691.433594 455.875 C 824.496094 327.910156 871.492188 498.378906 691.433594 455.875 Z M 699.269531 457.925781 C 696.660156 457.242188 694.046875 456.558594 691.433594 455.875 C 693.3125 454.039062 695.1875 452.207031 697.175781 449.933594 C 695.300781 451.769531 693.3125 454.039062 691.433594 455.875 C 690.699219 453.355469 690.078125 450.402344 689.339844 447.882812 C 690.078125 450.402344 690.699219 453.355469 691.433594 455.875 C 688.824219 455.191406 686.210938 454.507812 683.597656 453.820312 C 686.210938 454.507812 688.824219 455.191406 691.433594 455.875 C 689.558594 457.707031 687.683594 459.542969 685.691406 461.8125 C 687.570312 459.980469 689.558594 457.707031 691.433594 455.875 C 692.171875 458.394531 692.792969 461.347656 693.527344 463.867188 C 692.792969 461.347656 692.171875 458.394531 691.433594 455.875 C 694.046875 456.558594 696.660156 457.242188 699.269531 457.925781 Z M 699.269531 457.925781 " clip-rule="nonzero"/></clipPath></defs><g transform="matrix(1, 0, 0, 1, 205, 106)"><g clip-path="url(#70f60ecc87)"><g fill="#42afff" fill-opacity="1"><g transform="translate(5.049454, 908.319781)"><g><path d="M 20.390625 0 L 20.390625 -43.328125 L 39.078125 -43.328125 C 49.273438 -43.328125 58.054688 -44.601562 65.421875 -47.15625 C 72.785156 -49.707031 78.59375 -54.945312 82.84375 -62.875 C 87.09375 -70.800781 89.21875 -82.976562 89.21875 -99.40625 L 89.21875 -510.640625 C 89.21875 -526.503906 87.09375 -538.117188 82.84375 -545.484375 C 78.59375 -552.847656 73.066406 -557.660156 66.265625 -559.921875 C 59.472656 -562.191406 52.113281 -563.328125 44.1875 -563.328125 L 20.390625 -563.328125 L 20.390625 -606.65625 L 197.96875 -606.65625 L 447.765625 -170.78125 L 447.765625 -510.640625 C 447.765625 -524.804688 445.78125 -535.710938 441.8125 -543.359375 C 437.851562 -551.003906 432.613281 -556.242188 426.09375 -559.078125 C 419.582031 -561.910156 412.082031 -563.328125 403.59375 -563.328125 L 379.796875 -563.328125 L 379.796875 -606.65625 L 573.515625 -606.65625 L 573.515625 -563.328125 L 549.734375 -563.328125 C 540.671875 -563.328125 532.738281 -561.765625 525.9375 -558.640625 C 519.132812 -555.523438 513.894531 -550.003906 510.21875 -542.078125 C 506.539062 -534.148438 504.703125 -522.539062 504.703125 -507.25 L 504.703125 0 L 423.984375 0 L 145.296875 -478.359375 L 145.296875 -99.40625 C 145.296875 -82.976562 146.992188 -70.800781 150.390625 -62.875 C 153.785156 -54.945312 158.878906 -49.707031 165.671875 -47.15625 C 172.472656 -44.601562 180.40625 -43.328125 189.46875 -43.328125 L 214.109375 -43.328125 L 214.109375 0 Z M 20.390625 0 "/></g></g></g></g></g><g clip-path="url(#24fb54f617)"><g clip-path="url(#df85a02186)"><g clip-path="url(#39c39358a4)"><g clip-path="url(#99e95a1053)"><path stroke-linecap="butt" transform="matrix(0.63474, -0.399507, 0.399507, 0.63474, 190.108306, 476.350116)" fill="none" stroke-linejoin="miter" d="M 143.999847 161.999134 C -102.598668 156.001607 15.599209 -48.003451 143.999847 161.999134 Z M 143.999847 161.999134 C 25.803264 377.999347 261.598767 377.99746 143.999847 161.999134 Z M 143.999847 161.999134 C -102.600148 168.00117 15.597055 372.000162 143.999847 161.999134 Z M 143.999847 161.999134 C 25.799716 -54.002195 261.599626 -54.001308 143.999847 161.999134 Z M 143.999847 161.999134 C 272.400484 372.00172 390.602769 167.999436 143.999847 161.999134 Z M 143.999847 161.999134 C 272.399864 -47.997485 390.599841 155.997099 143.999847 161.999134 Z M 154.79862 162.001788 C 151.199029 162.000904 147.599438 162.000019 143.999847 161.999134 C 145.799727 159.002584 147.597974 155.998851 149.400858 152.401089 C 147.600978 155.39764 145.799727 159.002584 143.999847 161.999134 C 142.200136 159.001699 140.399021 155.400278 138.602084 152.398435 C 140.399021 155.400278 142.200136 159.001699 143.999847 161.999134 C 140.400255 161.99825 136.800664 161.997365 133.198298 162.000888 C 136.800664 161.997365 140.400255 161.99825 143.999847 161.999134 C 142.197192 165.000093 140.401719 167.999418 138.598835 171.59718 C 140.398716 168.600629 142.197192 165.000093 143.999847 161.999134 C 145.796783 165.000978 147.600673 168.597991 149.397609 171.599834 C 147.600673 168.597991 145.796783 165.000978 143.999847 161.999134 C 147.599438 162.000019 151.199029 162.000904 154.79862 162.001788 Z M 154.79862 162.001788 " stroke="#ffffff" stroke-width="22" stroke-opacity="1" stroke-miterlimit="4"/></g></g></g></g><g clip-path="url(#77077ffb49)"><g clip-path="url(#2b022a1483)"><g clip-path="url(#16e69dd955)"><g clip-path="url(#e72c4c8d02)"><path stroke-linecap="butt" transform="matrix(0.725529, 0.190018, -0.190018, 0.725529, 584.7827, 757.16178)" fill="none" stroke-linejoin="miter" d="M 144.000153 161.997824 C -102.602045 155.999319 15.601122 -48.000106 144.000153 161.997824 Z M 144.000153 161.997824 C 25.800919 377.997153 261.599486 378.00078 144.000153 161.997824 Z M 144.000153 161.997824 C -102.598112 167.999223 15.599856 372.000598 144.000153 161.997824 Z M 144.000153 161.997824 C 25.799571 -53.998416 261.601857 -54.001147 144.000153 161.997824 Z M 144.000153 161.997824 C 272.400504 372.000792 390.598632 168.002686 144.000153 161.997824 Z M 144.000153 161.997824 C 272.40177 -47.999912 390.599738 156.001463 144.000153 161.997824 Z M 154.801278 162.000966 C 151.199663 162.002038 147.603087 162.00179 144.000153 161.997824 C 145.799707 159.001421 147.597942 155.999979 149.400856 152.399688 C 147.602621 155.401129 145.799707 159.001421 144.000153 161.997824 C 142.198093 159.002492 140.398073 155.398235 138.601051 152.401584 C 140.398073 155.398235 142.198093 159.002492 144.000153 161.997824 C 140.398538 161.998896 136.801962 161.998648 133.200348 161.99972 C 136.801962 161.998648 140.398538 161.998896 144.000153 161.997824 C 142.201918 164.999265 140.398645 168.002026 138.600769 171.600998 C 140.399004 168.599556 142.201918 164.999265 144.000153 161.997824 C 145.798495 164.999513 147.597195 168.598732 149.400575 171.599102 C 147.597195 168.598732 145.798495 164.999513 144.000153 161.997824 C 147.603087 162.00179 151.199663 162.002038 154.801278 162.000966 Z M 154.801278 162.000966 " stroke="#ffffff" stroke-width="22" stroke-opacity="1" stroke-miterlimit="4"/></g></g></g></g><g clip-path="url(#25ed3ec885)"><g clip-path="url(#e7bf2c36a5)"><g clip-path="url(#f08699b959)"><g clip-path="url(#34fdc24564)"><path stroke-linecap="butt" transform="matrix(0.725529, 0.190018, -0.190018, 0.725529, 251.674102, 650.563629)" fill="none" stroke-linejoin="miter" d="M 143.999318 161.998724 C -102.597841 155.9989 15.600287 -47.999205 143.999318 161.998724 Z M 143.999318 161.998724 C 25.800084 377.998053 261.598651 378.001681 143.999318 161.998724 Z M 143.999318 161.998724 C -102.598947 168.000123 15.599021 372.001498 143.999318 161.998724 Z M 143.999318 161.998724 C 25.798737 -53.997516 261.601023 -54.000246 143.999318 161.998724 Z M 143.999318 161.998724 C 272.399669 372.001692 390.601517 167.997229 143.999318 161.998724 Z M 143.999318 161.998724 C 272.400935 -47.999011 390.598903 156.002363 143.999318 161.998724 Z M 154.800443 162.001867 C 151.198829 162.002938 147.600933 161.997652 143.999318 161.998724 C 145.798873 159.002321 147.602146 155.99956 149.400022 152.400588 C 147.601787 155.40203 145.798873 159.002321 143.999318 161.998724 C 142.202296 159.002073 140.397238 155.399135 138.600216 152.402485 C 140.397238 155.399135 142.202296 159.002073 143.999318 161.998724 C 140.397704 161.999796 136.801128 161.999548 133.199513 162.00062 C 136.801128 161.999548 140.397704 161.999796 143.999318 161.998724 C 142.201084 165.000166 140.402849 168.001607 138.599935 171.601898 C 140.39817 168.600457 142.201084 165.000166 143.999318 161.998724 C 145.79766 165.000413 147.601399 168.598313 149.39974 171.600002 C 147.601399 168.598313 145.79766 165.000413 143.999318 161.998724 C 147.600933 161.997652 151.198829 162.002938 154.800443 162.001867 Z M 154.800443 162.001867 " stroke="#ffffff" stroke-width="22" stroke-opacity="1" stroke-miterlimit="4"/></g></g></g></g><g clip-path="url(#bfad5a6305)"><g clip-path="url(#edd404970f)"><g clip-path="url(#c23af979b8)"><g clip-path="url(#751490ee36)"><path stroke-linecap="butt" transform="matrix(0.725529, 0.190018, -0.190018, 0.725529, 272.537547, 902.059992)" fill="none" stroke-linejoin="miter" d="M 143.999016 161.998433 C -102.598144 155.998609 15.599985 -47.999497 143.999016 161.998433 Z M 143.999016 161.998433 C 25.799782 377.997761 261.598349 378.001389 143.999016 161.998433 Z M 143.999016 161.998433 C -102.59925 167.999832 15.598719 372.001207 143.999016 161.998433 Z M 143.999016 161.998433 C 25.798434 -53.997807 261.60072 -54.000538 143.999016 161.998433 Z M 143.999016 161.998433 C 272.399366 372.001401 390.602533 168.001975 143.999016 161.998433 Z M 143.999016 161.998433 C 272.400632 -47.999303 390.598601 156.002072 143.999016 161.998433 Z M 154.800141 162.001575 C 151.198526 162.002647 147.60063 161.997361 143.999016 161.998433 C 145.79857 159.002029 147.601843 155.999268 149.399719 152.400297 C 147.601484 155.401738 145.79857 159.002029 143.999016 161.998433 C 142.201994 159.001782 140.401974 155.397524 138.599914 152.402193 C 140.401974 155.397524 142.201994 159.001782 143.999016 161.998433 C 140.397401 161.999504 136.800825 161.999257 133.199211 162.000329 C 136.800825 161.999257 140.397401 161.999504 143.999016 161.998433 C 142.200781 164.999874 140.402547 168.001316 138.599632 171.601607 C 140.397867 168.600165 142.200781 164.999874 143.999016 161.998433 C 145.797357 165.000122 147.601096 168.598021 149.399437 171.599711 C 147.601096 168.598021 145.797357 165.000122 143.999016 161.998433 C 147.60063 161.997361 151.198526 162.002647 154.800141 162.001575 Z M 154.800141 162.001575 " clip-rule="nonzero"/></clipPath></defs><g transform="matrix(1, 0, 0, 1, 205, 106)"><g clip-path="url(#70f60ecc87)"><g fill="#42afff" fill-opacity="1"><g transform="translate(5.049454, 908.319781)"><g><path d="M 20.390625 0 L 20.390625 -43.328125 L 39.078125 -43.328125 C 49.273438 -43.328125 58.054688 -44.601562 65.421875 -47.15625 C 72.785156 -49.707031 78.59375 -54.945312 82.84375 -62.875 C 87.09375 -70.800781 89.21875 -82.976562 89.21875 -99.40625 L 89.21875 -510.640625 C 89.21875 -526.503906 87.09375 -538.117188 82.84375 -545.484375 C 78.59375 -552.847656 73.066406 -557.660156 66.265625 -559.921875 C 59.472656 -562.191406 52.113281 -563.328125 44.1875 -563.328125 L 20.390625 -563.328125 L 20.390625 -606.65625 L 197.96875 -606.65625 L 447.765625 -170.78125 L 447.765625 -510.640625 C 447.765625 -524.804688 445.78125 -535.710938 441.8125 -543.359375 C 437.851562 -551.003906 432.613281 -556.242188 426.09375 -559.078125 C 419.582031 -561.910156 412.082031 -563.328125 403.59375 -563.328125 L 379.796875 -563.328125 L 379.796875 -606.65625 L 573.515625 -606.65625 L 573.515625 -563.328125 L 549.734375 -563.328125 C 540.671875 -563.328125 532.738281 -561.765625 525.9375 -558.640625 C 519.132812 -555.523438 513.894531 -550.003906 510.21875 -542.078125 C 506.539062 -534.148438 504.703125 -522.539062 504.703125 -507.25 L 504.703125 0 L 423.984375 0 L 145.296875 -478.359375 L 145.296875 -99.40625 C 145.296875 -82.976562 146.992188 -70.800781 150.390625 -62.875 C 153.785156 -54.945312 158.878906 -49.707031 165.671875 -47.15625 C 172.472656 -44.601562 180.40625 -43.328125 189.46875 -43.328125 L 214.109375 -43.328125 L 214.109375 0 Z M 20.390625 0 "/></g></g></g></g></g><g clip-path="url(#24fb54f617)"><g clip-path="url(#df85a02186)"><g clip-path="url(#39c39358a4)"><g clip-path="url(#99e95a1053)"><path stroke-linecap="butt" transform="matrix(0.63474, -0.399507, 0.399507, 0.63474, 190.108306, 476.350116)" fill="none" stroke-linejoin="miter" d="M 143.999847 161.999134 C -102.598668 156.001607 15.599209 -48.003451 143.999847 161.999134 Z M 143.999847 161.999134 C 25.803264 377.999347 261.598767 377.99746 143.999847 161.999134 Z M 143.999847 161.999134 C -102.600148 168.00117 15.597055 372.000162 143.999847 161.999134 Z M 143.999847 161.999134 C 25.799716 -54.002195 261.599626 -54.001308 143.999847 161.999134 Z M 143.999847 161.999134 C 272.400484 372.00172 390.602769 167.999436 143.999847 161.999134 Z M 143.999847 161.999134 C 272.399864 -47.997485 390.599841 155.997099 143.999847 161.999134 Z M 154.79862 162.001788 C 151.199029 162.000904 147.599438 162.000019 143.999847 161.999134 C 145.799727 159.002584 147.597974 155.998851 149.400858 152.401089 C 147.600978 155.39764 145.799727 159.002584 143.999847 161.999134 C 142.200136 159.001699 140.399021 155.400278 138.602084 152.398435 C 140.399021 155.400278 142.200136 159.001699 143.999847 161.999134 C 140.400255 161.99825 136.800664 161.997365 133.198298 162.000888 C 136.800664 161.997365 140.400255 161.99825 143.999847 161.999134 C 142.197192 165.000093 140.401719 167.999418 138.598835 171.59718 C 140.398716 168.600629 142.197192 165.000093 143.999847 161.999134 C 145.796783 165.000978 147.600673 168.597991 149.397609 171.599834 C 147.600673 168.597991 145.796783 165.000978 143.999847 161.999134 C 147.599438 162.000019 151.199029 162.000904 154.79862 162.001788 Z M 154.79862 162.001788 " stroke="#ffffff" stroke-width="22" stroke-opacity="1" stroke-miterlimit="4"/></g></g></g></g><g clip-path="url(#80add7df74)"><g clip-path="url(#f56bc0277a)"><g clip-path="url(#2734565f10)"><g clip-path="url(#2fe39d62ad)"><path stroke-linecap="butt" transform="matrix(0.725529, 0.190018, -0.190018, 0.725529, 617.741921, 310.976027)" fill="none" stroke-linejoin="miter" d="M 143.998058 162.001348 C -102.599102 156.001525 15.597707 -48.00162 143.998058 162.001348 Z M 143.998058 162.001348 C 25.798823 378.000677 261.601109 377.997947 143.998058 162.001348 Z M 143.998058 162.001348 C -102.601527 167.997709 15.601479 371.997765 143.998058 162.001348 Z M 143.998058 162.001348 C 25.801195 -54.001249 261.599762 -53.997622 143.998058 162.001348 Z M 143.998058 162.001348 C 272.402127 371.997959 390.600256 167.999853 143.998058 162.001348 Z M 143.998058 162.001348 C 272.398355 -48.001425 390.601361 155.99863 143.998058 162.001348 Z M 154.797863 161.999452 C 151.201287 161.999205 147.599672 162.000277 143.998058 162.001348 C 145.801331 158.998587 147.600885 156.002184 149.397441 152.398174 C 147.599207 155.399616 145.801331 158.998587 143.998058 162.001348 C 142.199716 158.999659 140.401016 155.40044 138.597636 152.40007 C 140.401016 155.40044 142.199716 158.999659 143.998058 162.001348 C 140.401481 162.001101 136.799867 162.002173 133.196933 161.998206 C 136.799867 162.002173 140.401481 162.001101 143.998058 162.001348 C 142.198504 164.997752 140.400269 167.999193 138.597355 171.599484 C 140.401947 168.600162 142.198504 164.997752 143.998058 162.001348 C 145.801438 165.001718 147.600138 168.600937 149.398479 171.602627 C 147.600138 168.600937 145.801438 165.001718 143.998058 162.001348 C 147.599672 162.000277 151.201287 161.999205 154.797863 161.999452 Z M 154.797863 161.999452 Z " stroke="#ffffff" stroke-width="22" stroke-opacity="1" stroke-miterlimit="4"/></g></g></g></g></svg>